<?xml version="1.0" encoding="UTF-8"?>
<svg version="1.1" xmlns="http://www.w3.org/2000/svg" width="5000" height="5000">
<path d="M0 0 C1650 0 3300 0 5000 0 C5000 1650 5000 3300 5000 5000 C3350 5000 1700 5000 0 5000 C0 3350 0 1700 0 0 Z " fill="#000000" transform="translate(0,0)"/>
<path d="M0 0 C24.14654868 12.02968851 33.87101195 53.64547056 41.64941406 76.58251953 C45.13653227 87.01605919 48.44656805 97.4881218 51.44824219 108.07128906 C52.00797909 110.02789152 52.58326251 111.97923976 53.1640625 113.9296875 C55.0757899 120.35234581 56.94734746 126.78239435 58.73046875 133.2421875 C59.03355957 134.33789062 59.33665039 135.43359375 59.64892578 136.5625 C60.2411523 138.70983548 60.82960516 140.85821671 61.41357422 143.0078125 C63.04778138 148.93311913 64.923743 154.68401765 67.07397461 160.44140625 C68.3982867 164.10045996 69.45576369 167.81595247 70.5 171.5625 C72.07184428 177.05579033 73.80717049 182.34992236 76.0390625 187.6171875 C77.14281197 190.35412725 78.03891811 193.12673584 78.9375 195.9375 C80.55988625 200.91281784 82.56392505 205.56800595 84.78515625 210.30078125 C86.36034783 213.8006442 87.62849643 217.37532055 88.90625 220.9921875 C90.41384036 225.138061 92.06695685 229.22252235 93.72070312 233.31152344 C95.35232918 237.35378499 96.91227425 241.41600736 98.4375 245.5 C100.36463444 250.53229777 102.54248435 255.38622535 104.86450195 260.24731445 C107.82908095 266.51288404 110.5571429 272.87735065 113.29098511 279.24591064 C131.68997882 322.07882726 151.87363447 364.55575165 174.52587891 405.32519531 C176.08343504 408.15139356 177.61321257 410.99124752 179.13671875 413.8359375 C186.77059185 428.0862198 194.74725342 442.09947347 203 456 C203.62197266 457.04897461 204.24394531 458.09794922 204.88476562 459.17871094 C212.56839412 472.11687394 220.38874706 484.95352063 228.49316406 497.63232422 C230.04589025 500.07210688 231.58287057 502.52125996 233.1171875 504.97265625 C246.59485326 526.43790681 260.83079828 547.48277816 275.61523438 568.07080078 C277.0976158 570.13599437 278.57213921 572.20668485 280.046875 574.27734375 C287.21895693 584.31164315 294.63076016 594.14811497 302.1328125 603.9375 C305.6058064 608.47211525 309.02750896 613.04294554 312.4375 617.625 C316.47411172 623.03579169 320.62933544 628.31961811 324.94140625 633.515625 C326.88667828 635.86323982 328.79225964 638.23691701 330.6875 640.625 C340.06980446 652.37619644 349.70291648 663.91505795 359.53222656 675.29394531 C361.02647754 677.03077596 362.51059799 678.77579808 363.9921875 680.5234375 C369.95261547 687.54384097 376.06288943 694.38641379 382.33984375 701.125 C384.39421494 703.34528957 386.40336649 705.58217306 388.375 707.875 C395.93134401 716.60099923 403.90102082 725.02556982 412.13999939 733.1075592 C413.93145007 734.93025449 415.59922726 736.80997812 417.26000977 738.75170898 C420.81941059 742.84411787 424.56221246 746.70719481 428.40234375 750.53515625 C429.08373917 751.21750839 429.76513458 751.89986053 430.46717834 752.60289001 C431.89705741 754.03344437 433.32817911 755.46275767 434.76049805 756.89086914 C436.93197711 759.05699074 439.09806325 761.22840174 441.26367188 763.40039062 C442.66374202 764.79979987 444.06412238 766.19889884 445.46484375 767.59765625 C446.41991066 768.55575951 446.41991066 768.55575951 447.39427185 769.53321838 C451.21259088 773.33204491 455.14344459 776.94341689 459.23109436 780.45127869 C461.78370434 782.68615284 464.1294685 785.07234726 466.5 787.5 C470.13224294 791.18149581 473.84033166 794.70007744 477.7734375 798.05859375 C480.73953485 800.64482249 483.61621115 803.32269355 486.5 806 C491.26611978 810.41522324 496.06847984 814.76922871 501 819 C501.4851709 819.41685059 501.9703418 819.83370117 502.47021484 820.26318359 C505.40674671 822.78584773 508.34647368 825.30471658 511.2890625 827.8203125 C513.7082138 829.88970698 516.11938733 831.96777307 518.5234375 834.0546875 C524.85685284 839.5413373 531.27772594 844.86216912 537.8972168 850.00073242 C541.60398561 852.88296917 545.2266767 855.84197074 548.8125 858.875 C554.89314759 863.98113321 561.18700632 868.77972991 567.51171875 873.578125 C571.26666101 876.43014567 574.98357274 879.32762317 578.69238281 882.23925781 C610.36795488 907.08095265 644.0341753 929.65972547 678.06005859 951.14257812 C680.01233058 952.37600158 681.96319084 953.61166252 683.91259766 954.84960938 C698.37980779 964.03467873 713.05322932 972.78113107 727.94580078 981.25830078 C730.79076578 982.8806813 733.62911451 984.51388777 736.46484375 986.15234375 C770.68709709 1005.89904383 805.83141832 1024.30931865 841.84619141 1040.57226562 C845.06417926 1042.02905406 848.2733049 1043.50392223 851.48046875 1044.984375 C864.92186562 1051.18642601 878.36355798 1057.37067503 892.12207031 1062.84204102 C895.40293333 1064.16212358 898.6686807 1065.51595001 901.93359375 1066.875 C902.54289734 1067.12854752 903.15220093 1067.38209503 903.77996826 1067.64332581 C906.29706015 1068.69104631 908.81393083 1069.73927421 911.3293457 1070.79101562 C919.15368621 1074.06070763 927.01122413 1077.15364679 935 1080 C937.06547548 1080.78387079 939.12855219 1081.5741403 941.1875 1082.375 C943.45802443 1083.25080127 945.72889943 1084.12569385 948 1085 C949.06492676 1085.41185547 950.12985352 1085.82371094 951.22705078 1086.24804688 C963.09491581 1090.77132665 975.10738473 1094.85322566 987.13696289 1098.92333984 C990.69206034 1100.12654342 994.24552774 1101.33446973 997.79882812 1102.54296875 C1000.09886343 1103.32319649 1002.39899053 1104.10315369 1004.69921875 1104.8828125 C1005.74123947 1105.23707306 1006.78326019 1105.59133362 1007.8568573 1105.95632935 C1019.26447155 1109.81030157 1030.76346752 1113.25585791 1042.375 1116.4375 C1050.48723725 1118.67942739 1058.49553442 1121.0335405 1066.42578125 1123.859375 C1071.55588715 1125.49652355 1076.77038214 1126.72258559 1082 1128 C1084.82897808 1128.70362732 1087.65662543 1129.41254778 1090.484375 1130.12109375 C1092.01299852 1130.50334444 1093.54164469 1130.88550457 1095.0703125 1131.26757812 C1096.63020833 1131.65755208 1098.19010417 1132.04752604 1099.75 1132.4375 C1101.29427083 1132.82356771 1102.83854167 1133.20963542 1104.3828125 1133.59570312 C1105.14363632 1133.78591034 1105.90446014 1133.97611755 1106.68833923 1134.17208862 C1108.21613835 1134.55403586 1109.74393986 1134.93597356 1111.27174377 1135.31790161 C1115.64977543 1136.41235801 1120.02772295 1137.50714999 1124.40559387 1138.60224915 C1126.40328528 1139.10179505 1128.40109373 1139.60087045 1130.39892578 1140.09985352 C1132.5877841 1140.6469939 1134.77634391 1141.19533278 1136.96435547 1141.74584961 C1151.01025205 1145.26813612 1165.12910407 1148.34080731 1179.3125 1151.25 C1180.15120636 1151.42253296 1180.98991272 1151.59506592 1181.85403442 1151.77282715 C1190.32478723 1153.5110665 1198.78886659 1155.1955174 1207.32836914 1156.56591797 C1211.75279803 1157.28479164 1216.15539295 1158.1202881 1220.5625 1158.9375 C1237.09485215 1161.95966322 1253.66333885 1164.41375453 1270.33203125 1166.5546875 C1275.74675674 1167.25797286 1281.13132349 1167.98672628 1286.49609375 1169.0078125 C1293.14547734 1170.25935401 1299.84375693 1171.03764681 1306.5625 1171.8125 C1307.62239639 1171.93597809 1307.62239639 1171.93597809 1308.70370483 1172.06195068 C1339.38594875 1175.62460388 1370.17054347 1179.01730727 1401.01457214 1180.77183533 C1403.70749482 1180.92600443 1406.39990265 1181.08397508 1409.09223938 1181.24757385 C1439.2183619 1183.05903603 1469.30401901 1183.34429194 1499.47875977 1183.31567383 C1504.75423772 1183.31106734 1510.02948368 1183.31789316 1515.30493164 1183.33618164 C1552.30809886 1183.46307849 1589.0994647 1182.40802 1626.03501129 1180.17564011 C1630.20520459 1179.92860605 1634.37662419 1179.70799274 1638.54833984 1179.48852539 C1657.18415484 1178.4849508 1675.69097454 1176.60923527 1694.22919083 1174.51320648 C1696.60743763 1174.24493086 1698.98596551 1173.97928996 1701.36459351 1173.7144165 C1766.0120595 1166.5963944 1766.0120595 1166.5963944 1830.05102539 1155.39355469 C1836.21497697 1154.11235464 1842.40784491 1153.11118322 1848.625 1152.125 C1859.32771781 1150.40418433 1869.82031146 1148.05919529 1880.36328125 1145.5546875 C1886.8668787 1144.01378537 1893.39662339 1142.62237966 1899.9375 1141.25 C1912.43108077 1138.60874267 1924.87369064 1135.76156907 1937.3125 1132.875 C1938.2296579 1132.6629895 1939.1468158 1132.450979 1940.09176636 1132.23254395 C1949.99805481 1129.9401136 1959.86410234 1127.56775772 1969.67749023 1124.90234375 C1972.74565879 1124.06907525 1975.81912434 1123.26358563 1978.8984375 1122.47265625 C1988.2667207 1120.06218703 1997.60406919 1117.6007991 2006.86987305 1114.82006836 C2011.05459007 1113.56510306 2015.25069541 1112.37358325 2019.46679688 1111.22851562 C2029.95043415 1108.37940048 2040.27765069 1105.09788702 2050.61621094 1101.76513672 C2057.40283127 1099.58680119 2064.22736951 1097.53081916 2071.0546875 1095.484375 C2081.35084144 1092.38875855 2091.60787395 1089.19890989 2101.8125 1085.8125 C2102.78356689 1085.4918457 2103.75463379 1085.17119141 2104.75512695 1084.84082031 C2110.16119414 1083.03117212 2115.46469006 1081.06883264 2120.72973633 1078.88134766 C2123.08402795 1077.96737919 2125.44454956 1077.24555768 2127.875 1076.5625 C2132.70709206 1075.17007472 2137.23108011 1073.2735061 2141.8515625 1071.30078125 C2144.91596721 1070.03471826 2147.99523491 1068.90598583 2151.125 1067.8125 C2161.4272128 1064.19466607 2171.58548889 1060.19144718 2181.76660156 1056.24853516 C2183.92315839 1055.41580852 2186.08137145 1054.58735856 2188.24121094 1053.76318359 C2195.91846391 1050.83197377 2203.53474802 1047.7743641 2211.125 1044.625 C2211.73371948 1044.37255524 2212.34243896 1044.12011047 2212.96960449 1043.86001587 C2239.85433067 1032.70141558 2266.54923729 1021.15187351 2292.97167969 1008.93701172 C2294.97111114 1008.01334562 2296.97176125 1007.09236567 2298.97265625 1006.171875 C2317.39202466 997.68766196 2335.60221485 988.7996758 2353.75 979.75 C2354.74685822 979.25420441 2355.74371643 978.75840881 2356.77078247 978.24758911 C2370.22846915 971.54632442 2383.48928142 964.54886136 2396.65362549 957.28918457 C2399.78986851 955.56601715 2402.94136681 953.87367879 2406.09765625 952.1875 C2419.5308456 945.01071539 2432.8339528 937.65545155 2446 930 C2447.09151367 929.36723145 2448.18302734 928.73446289 2449.30761719 928.08251953 C2485.71830003 906.96513287 2521.2989754 884.54393041 2556.3125 861.1875 C2557.16717865 860.6176236 2558.0218573 860.04774719 2558.9024353 859.46060181 C2571.38352281 851.13380073 2583.81172172 842.7522962 2596 834 C2596.74330566 833.46697266 2597.48661133 832.93394531 2598.25244141 832.38476562 C2602.77105572 829.14004152 2607.27662799 825.87770105 2611.77783203 822.60888672 C2614.02271644 820.98355292 2616.27398384 819.36746511 2618.52734375 817.75390625 C2628.11254797 810.88287712 2637.54144507 803.83869575 2646.87792969 796.63378906 C2649.75284898 794.42037904 2652.63935556 792.22232136 2655.52539062 790.0234375 C2667.17727097 781.13979973 2678.68959373 772.10543255 2690.03710938 762.8359375 C2694.33481135 759.33133802 2698.68061193 755.89840177 2703.0625 752.5 C2708.73916044 748.08526935 2714.18638184 743.44228785 2719.59472656 738.70410156 C2723.27840901 735.47919275 2727.00440016 732.328661 2730.8125 729.25 C2735.23271089 725.66923569 2739.47521139 721.93186961 2743.68359375 718.10546875 C2748.06321199 714.12466904 2752.52602471 710.24532015 2757.046875 706.42578125 C2765.03682494 699.66665308 2772.72436175 692.64698426 2780.328125 685.45703125 C2783.18129369 682.76100409 2786.06886809 680.11146148 2789 677.5 C2798.79926732 668.74356012 2808.43756225 659.77325678 2817.59375 650.34375 C2819.56074991 648.427841 2821.55688169 646.64342377 2823.63842773 644.85717773 C2827.99844044 641.05305909 2832.10699681 637.03758759 2836.19140625 632.94140625 C2836.94034653 632.1934227 2837.6892868 631.44543915 2838.46092224 630.67478943 C2840.03271225 629.10367536 2841.60325849 627.53131608 2843.17260742 625.95776367 C2845.55601304 623.56900154 2847.94471068 621.18562554 2850.33398438 618.80273438 C2851.87011237 617.2659455 2853.40593009 615.7288464 2854.94140625 614.19140625 C2855.64576309 613.48907364 2856.35011993 612.78674103 2857.07582092 612.06312561 C2861.01506322 608.10547055 2864.78092097 604.05426748 2868.41026306 599.80992126 C2871.65831488 596.1120025 2875.23271833 592.72783342 2878.75 589.2890625 C2882.40514117 585.68287411 2885.8327348 581.95284183 2889.1875 578.06640625 C2893.00812027 573.71056978 2897.04726893 569.5537344 2901.0390625 565.35546875 C2904.9362518 561.24009704 2908.73704267 557.06396049 2912.45019531 552.78173828 C2914.39024841 550.55134958 2916.38050303 548.36921987 2918.375 546.1875 C2921.50422827 542.72469918 2924.50500349 539.19320997 2927.4375 535.5625 C2930.51336588 531.75912497 2933.68753166 528.09917348 2937 524.5 C2941.05983645 520.08359856 2944.89323821 515.53836478 2948.66015625 510.87109375 C2951.18733747 507.77012849 2953.77629779 504.728379 2956.375 501.6875 C2960.62089168 496.70254972 2964.7088917 491.61432377 2968.72949219 486.4465332 C2972.29684194 481.86868682 2975.94902961 477.36589844 2979.625 472.875 C2984.02496478 467.4854414 2988.30119711 462.03367449 2992.4375 456.4375 C2994.49165413 453.6647309 2996.58537632 450.92406745 2998.6875 448.1875 C3006.01724802 438.64243742 3013.19778005 429.03524857 3020.08203125 419.1640625 C3023.12701387 414.79996499 3026.24842501 410.49333141 3029.375 406.1875 C3042.74207373 387.71181401 3055.49917348 368.86367603 3068.10583496 349.86462402 C3071.34788287 344.97891013 3074.60259954 340.10181709 3077.86328125 335.22851562 C3094.45457171 310.41786172 3110.43481905 285.21654669 3126.20361328 259.87695312 C3127.89571868 257.16700884 3129.6000459 254.46522298 3131.30859375 251.765625 C3143.08857759 233.07407153 3153.5231082 213.63538036 3164.015625 194.20214844 C3250.81923522 33.53098913 3250.81923522 33.53098913 3280.0625 24.125 C3294.55267168 20.21141517 3314.02394523 19.46293915 3327.3359375 26.8515625 C3341.67051356 35.81067254 3350.92498826 50.70483525 3355 67 C3356.86072812 76.16159392 3357.28760376 85.16603131 3357.20581055 94.47558594 C3357.18746015 96.62967766 3357.18530253 98.78333779 3357.18554688 100.9375 C3357.15560669 114.3521484 3355.67043438 126.75641953 3352.5625 139.8125 C3352.30081528 140.92023773 3352.30081528 140.92023773 3352.03384399 142.050354 C3337.94025895 201.24927923 3310.18092528 258.57118478 3280.44384766 311.42431641 C3278.86736536 314.23660728 3277.31383307 317.06091061 3275.76171875 319.88671875 C3268.15646873 333.67517849 3260.13180515 347.16485506 3251.91015625 360.58984375 C3248.7743 365.7130143 3245.70421545 370.86853551 3242.6875 376.0625 C3230.1672378 397.5424343 3216.21416912 418.22212688 3202.54907227 438.98266602 C3201.3121122 440.86300754 3200.07642603 442.74418773 3198.84204102 444.6262207 C3190.62020318 457.16133263 3182.22248579 469.5488092 3173.56459045 481.78707886 C3171.47830789 484.73786946 3169.40136063 487.69517996 3167.32453918 490.65263367 C3141.26293995 527.71216414 3114.14138605 564.10170846 3085.4765625 599.19140625 C3084.16952459 600.7923548 3082.86576644 602.39597976 3081.5625 604 C3075.80043559 611.0791077 3069.91893108 618.05211893 3064 625 C3063.50032715 625.58749023 3063.0006543 626.17498047 3062.48583984 626.78027344 C3056.7441408 633.52727155 3050.95814624 640.21986925 3045.00390625 646.78125 C3043.18688018 648.79308393 3041.40055608 650.82660434 3039.625 652.875 C3036.21317487 656.79228071 3032.70280912 660.61672638 3029.18579102 664.43920898 C3026.29061297 667.58712892 3023.41646674 670.75203803 3020.5625 673.9375 C3012.47479779 682.93344684 3004.33060572 691.8217814 2995.66796875 700.26953125 C2993.64697304 702.33787093 2991.76751234 704.41125189 2989.89160156 706.60400391 C2985.80752263 711.28739889 2981.46457647 715.67947919 2977.06640625 720.06640625 C2976.22963852 720.90413071 2975.39287079 721.74185516 2974.53074646 722.60496521 C2972.77131896 724.36506935 2971.01064347 726.12392677 2969.2487793 727.8815918 C2966.57030589 730.55470972 2963.89721127 733.23312251 2961.22460938 735.91210938 C2959.50552885 737.63052903 2957.78613811 739.34863842 2956.06640625 741.06640625 C2954.88166466 742.25418419 2954.88166466 742.25418419 2953.67298889 743.46595764 C2949.48049693 747.64100608 2945.21265859 751.65951731 2940.71507263 755.50511169 C2938.1768804 757.71744592 2935.8525292 760.09078335 2933.5 762.5 C2929.83728288 766.25097537 2926.05086596 769.73443075 2922.08789062 773.16601562 C2918.64419711 776.19092508 2915.32724344 779.34821666 2912 782.5 C2907.3459372 786.90863371 2902.64082385 791.23010841 2897.79931641 795.43261719 C2895.56412587 797.37968954 2893.37529997 799.37494469 2891.1875 801.375 C2887.74621795 804.48528851 2884.23678702 807.46478312 2880.625 810.375 C2876.61170754 813.61954911 2872.77611928 816.98774093 2869 820.5 C2864.04124404 825.10269402 2858.91502858 829.43147943 2853.64306641 833.67041016 C2850.24208576 836.42252614 2846.87459989 839.21565959 2843.5 842 C2842.02486092 843.21499108 2840.54960289 844.42983776 2839.07421875 845.64453125 C2836.70069683 847.59890743 2834.32821443 849.55450337 2831.95703125 851.51171875 C2825.30693378 856.98306926 2818.55134285 862.31104223 2811.76757812 867.61474609 C2810.08610423 868.93251997 2808.40930809 870.25595816 2806.734375 871.58203125 C2790.09411184 884.74459376 2773.14300987 897.50080205 2756 910 C2754.8852832 910.81331787 2754.8852832 910.81331787 2753.74804688 911.64306641 C2724.46609283 932.97687851 2694.52678963 953.48667431 2664 973 C2663.11989258 973.56477051 2662.23978516 974.12954102 2661.33300781 974.71142578 C2648.98420889 982.63390758 2636.55998 990.4167872 2624 998 C2623.3817334 998.37398926 2622.7634668 998.74797852 2622.12646484 999.13330078 C2617.76080162 1001.77209641 2613.38257291 1004.38940574 2609 1007 C2608.20142578 1007.47663086 2607.40285156 1007.95326172 2606.58007812 1008.44433594 C2593.45255803 1016.27244705 2580.21897238 1023.88928487 2566.89111328 1031.37060547 C2564.00325522 1032.9981654 2561.12361197 1034.63939375 2558.24609375 1036.28515625 C2545.87949304 1043.34713336 2533.37401964 1050.06873678 2520.71630859 1056.59326172 C2516.4840326 1058.78509834 2512.27448018 1061.01949454 2508.0625 1063.25 C2501.66821321 1066.62898092 2495.23308761 1069.9099882 2488.74926758 1073.11352539 C2484.52585829 1075.2087262 2480.38300896 1077.41718889 2476.25 1079.6875 C2468.19583095 1084.05730353 2459.87304618 1087.84823025 2451.54980469 1091.67211914 C2450.29750091 1092.2475039 2449.04522265 1092.82294419 2447.79296875 1093.3984375 C2447.15791412 1093.69022385 2446.5228595 1093.98201019 2445.86856079 1094.28263855 C2441.28624086 1096.3934992 2436.72676078 1098.54905445 2432.17578125 1100.7265625 C2405.14945338 1113.63663519 2377.69063611 1125.58510785 2350 1137 C2348.97616211 1137.4225708 2347.95232422 1137.8451416 2346.89746094 1138.28051758 C2333.53760568 1143.78062692 2320.14756802 1149.16857997 2306.62109375 1154.24609375 C2303.55176925 1155.40063098 2300.50406342 1156.59663984 2297.46484375 1157.828125 C2290.07328717 1160.80035704 2282.59455334 1163.54382399 2275.125 1166.3125 C2274.34156219 1166.60301239 2273.55812439 1166.89352478 2272.75094604 1167.19284058 C2251.21896992 1175.17135746 2229.51273816 1182.54175353 2207.71856689 1189.76832581 C2203.88537511 1191.03966968 2200.05395394 1192.31599807 2196.2253418 1193.60107422 C2188.53551192 1196.18027458 2180.8506987 1198.73037492 2173.0625 1201 C2168.21469744 1202.42980564 2163.37209798 1203.86324472 2158.56640625 1205.4296875 C2147.42852841 1209.05975588 2136.17876945 1212.15924442 2124.84423828 1215.10888672 C2119.18419923 1216.58754094 2113.56599415 1218.10864715 2107.9921875 1219.88671875 C2098.28073692 1222.92292883 2088.37380829 1225.24681156 2078.5 1227.6875 C2076.35625041 1228.21943427 2074.21253336 1228.75149973 2072.06884766 1229.28369141 C2067.75388186 1230.35394984 2063.43823593 1231.42140745 2059.12207031 1232.48681641 C2054.45254573 1233.63975957 2049.78508899 1234.80072688 2045.11860657 1235.96591187 C2027.87208602 1240.26748026 2010.63053807 1244.22078731 1993.17578125 1247.59375 C1985.80245784 1249.02103994 1978.46377797 1250.5932901 1971.125 1252.1875 C1962.58573961 1254.0381538 1954.04728397 1255.79824572 1945.44921875 1257.3515625 C1941.92561634 1258.01398379 1938.43581976 1258.77819302 1934.9375 1259.5625 C1928.91026381 1260.88138502 1922.89250671 1261.70934968 1916.7734375 1262.47265625 C1911.77361905 1263.17138864 1906.8643382 1264.19456348 1901.921875 1265.21484375 C1889.51139863 1267.69941123 1876.98954524 1269.47958414 1864.4453125 1271.1328125 C1859.91261085 1271.73274965 1855.38962754 1272.38189809 1850.8671875 1273.0546875 C1821.64850746 1277.33268537 1792.2391755 1279.98034044 1762.84912109 1282.77067566 C1755.93295667 1283.42754066 1749.01851886 1284.09499528 1742.10717773 1284.80102539 C1723.0295095 1286.73813688 1703.95891614 1288.18282814 1684.8125 1289.1875 C1684.00271194 1289.23039783 1683.19292389 1289.27329567 1682.3585968 1289.31749344 C1648.17684211 1291.10784986 1613.98749974 1291.41241782 1579.76659775 1291.43390274 C1575.83109032 1291.43666463 1571.89561036 1291.44605903 1567.96011353 1291.45565796 C1531.18846181 1291.52777779 1494.6313762 1290.33467284 1457.93188858 1288.17269325 C1455.19022138 1288.01120436 1452.44840858 1287.85253918 1449.70651245 1287.69499207 C1442.66861549 1287.28824272 1435.64257516 1286.86607908 1428.625 1286.1875 C1426.75782681 1286.0115668 1424.89063773 1285.83580227 1423.0234375 1285.66015625 C1421.95061523 1285.55848145 1420.87779297 1285.45680664 1419.77246094 1285.35205078 C1416.12915909 1285.01205329 1412.48507968 1284.68239226 1408.84057617 1284.35560608 C1351.18895862 1279.18347739 1351.18895862 1279.18347739 1322.82128906 1274.42529297 C1316.10413528 1273.30430629 1309.38901365 1272.40935784 1302.625 1271.625 C1288.82493799 1269.9945983 1275.17118537 1267.55284957 1261.49159241 1265.13783264 C1256.83414049 1264.31668665 1252.173213 1263.52115827 1247.5078125 1262.74609375 C1211.83890723 1256.79923849 1176.57475625 1248.81402523 1141.4375 1240.3125 C1140.66417328 1240.12608948 1139.89084656 1239.93967896 1139.09408569 1239.74761963 C1130.32785561 1237.63038544 1121.63332847 1235.37600193 1112.97338867 1232.85522461 C1109.47811082 1231.84989098 1105.97470694 1230.9700665 1102.4375 1230.125 C1086.07702359 1226.10812621 1070.01884497 1221.12641448 1054 1215.9296875 C1047.68669514 1213.88697987 1041.34661064 1211.93636677 1035 1210 C1009.16473501 1202.11704409 1009.16473501 1202.11704409 998.875 1198.6875 C998.18446533 1198.45756348 997.49393066 1198.22762695 996.7824707 1197.99072266 C992.82298675 1196.65639465 988.90787307 1195.22721028 985.00048828 1193.74780273 C981.685419 1192.50859634 978.34150738 1191.35305947 975 1190.1875 C967.29247252 1187.48245022 959.64009911 1184.64738826 952.00146484 1181.75439453 C949.95796426 1180.98415584 947.91120277 1180.22324403 945.86328125 1179.46484375 C944.82989624 1179.08102539 944.82989624 1179.08102539 943.77563477 1178.68945312 C941.88729565 1177.98846669 939.99835848 1177.28909193 938.109375 1176.58984375 C933.81141744 1174.95758449 929.58170699 1173.16753287 925.34228516 1171.38989258 C921.80710043 1169.91978252 918.25949949 1168.48233183 914.70703125 1167.0546875 C898.92900538 1160.70612751 883.25600226 1154.18807267 867.73583984 1147.22607422 C865.22948036 1146.10284226 862.71915923 1144.98916068 860.20703125 1143.87890625 C827.59983779 1129.41160936 795.44287722 1113.84865979 764 1097 C762.64092529 1096.27611084 762.64092529 1096.27611084 761.25439453 1095.53759766 C746.98671807 1087.93280387 732.95197357 1079.99218301 719.02636719 1071.77929688 C715.95328487 1069.9725347 712.87261507 1068.17945293 709.7890625 1066.390625 C684.76169016 1051.87115423 660.13853521 1036.69725797 636.17431641 1020.47167969 C634.52948845 1019.35838271 632.88304545 1018.24747136 631.23583984 1017.13769531 C618.38083157 1008.47493787 605.63314613 999.70284151 593.12402344 990.54736328 C590.96840952 988.97698616 588.80252553 987.42192243 586.6328125 985.87109375 C570.64851123 974.43537132 555.04881709 962.49452782 539.64160156 950.29443359 C537.93077938 948.94541825 536.21248685 947.60643606 534.4921875 946.26953125 C527.55161985 940.86781818 520.76608537 935.32442864 514.078125 929.61328125 C511.2729268 927.22117731 508.42536843 924.88544149 505.5625 922.5625 C496.23529102 914.96204837 487.13756592 907.09547919 478.2265625 899.01171875 C476.16895609 897.15265331 474.09153237 895.32071642 472 893.5 C463.78575347 886.33717702 455.73960345 878.9835014 447.72937012 871.59393311 C446.62526894 870.5763005 445.51999853 869.55993403 444.41320801 868.54522705 C431.57228037 856.75570357 419.27231131 844.4269211 406.96069336 832.09106445 C404.00585784 829.13047922 401.04647958 826.1744816 398.08579922 823.21974277 C395.77355741 820.91113159 393.46372323 818.60012326 391.1545887 816.28840446 C390.06422022 815.1973764 388.97312934 814.10706974 387.8812542 813.01754951 C382.03863302 807.18479237 376.36946138 801.27384223 371 795 C369.69831245 793.5837356 368.38817128 792.17509037 367.0625 790.78125 C366.39476562 790.07613281 365.72703125 789.37101562 365.0390625 788.64453125 C364.36617187 787.93683594 363.69328125 787.22914063 363 786.5 C358.41414774 781.67694848 353.91009541 776.81027752 349.54980469 771.78173828 C347.60975159 769.55134958 345.61949697 767.36921987 343.625 765.1875 C339.67312063 760.81364029 335.94724635 756.29027878 332.2421875 751.70703125 C330.10516218 749.12696409 327.89264255 746.65285515 325.625 744.1875 C321.58582425 739.75562661 317.89686492 735.11918179 314.22705078 730.38354492 C311.07983447 726.33564141 307.83653479 722.39292113 304.5 718.5 C298.79241405 711.82574943 293.37236252 704.94549634 288 698 C287.22398437 696.99839844 286.44796875 695.99679687 285.6484375 694.96484375 C283.59902448 692.30883189 281.55616248 689.64808884 279.51806641 686.98339844 C278.40170239 685.524836 277.28399245 684.06730345 276.16552734 682.61035156 C268.35425719 672.43336063 260.587754 662.24480726 253.22167969 651.73974609 C251.91646234 649.88103729 250.60343808 648.0280241 249.2890625 646.17578125 C246.75062942 642.59589544 244.22280458 639.00867718 241.69970703 635.41796875 C240.52749051 633.7503973 239.35390429 632.08378811 238.17919922 630.41796875 C223.12039002 609.04567164 208.83897896 587.17933189 195 565 C194.48518066 564.17757812 193.97036133 563.35515625 193.43994141 562.5078125 C167.19970146 520.56167734 142.95005584 477.32775688 120.98071289 432.99194336 C119.41619629 429.83508461 117.84135374 426.68356351 116.26182556 423.53419495 C103.64460656 398.36646596 91.44087799 373.02534805 79.93896484 347.328125 C78.22665578 343.50266267 76.50529538 339.68133081 74.78233337 335.86065674 C66.28173962 317.00577035 57.90125021 298.11563485 50 279 C49.56026855 277.93910156 49.12053711 276.87820313 48.66748047 275.78515625 C42.08890382 259.88121674 35.80369715 243.87232757 29.62890625 227.80859375 C28.04771352 223.69641432 26.44639591 219.59462673 24.80078125 215.5078125 C23.32701272 211.84423046 21.93949382 208.16189915 20.625 204.4375 C20.20734375 203.25800781 19.7896875 202.07851562 19.359375 200.86328125 C18.90596842 199.57561995 18.45285792 198.28785436 18 197 C17.21954515 194.78252513 16.43890733 192.56511552 15.65771484 190.34790039 C15.15184484 188.91123589 14.64689753 187.47424602 14.14306641 186.03686523 C12.75658002 182.09330317 11.31378595 178.17593398 9.83935547 174.26416016 C4.62464985 160.19749932 -0.2394876 146.03124562 -4.02734375 131.51171875 C-4.89448007 128.12748873 -4.89448007 128.12748873 -6.01171875 125.48046875 C-7.29073127 122.270299 -8.07383992 118.97774711 -8.875 115.625 C-10.1484077 110.39074018 -11.49067385 105.18982982 -12.9375 100 C-15.50846114 90.42190949 -17.44146597 80.71581634 -19.38427734 70.99414062 C-19.95466695 68.22044589 -20.57142134 65.46247498 -21.20703125 62.703125 C-23.39495563 52.88284071 -24.3995929 43.38311827 -24.5 33.3125 C-24.51844971 32.23758301 -24.53689941 31.16266602 -24.5559082 30.05517578 C-24.47563501 19.86763372 -21.78399776 12.03843515 -14.71875 4.62890625 C-10.32178136 0.46177915 -6.09699047 -1.45271253 0 0 Z " fill="#97FE97" transform="translate(782,2179)"/>
<path d="M0 0 C0.92613098 -0.00031219 1.85226196 -0.00062439 2.80645752 -0.00094604 C52.72066129 0.12697662 100.72703756 13.52068543 145.3125 35.4375 C146.01826172 35.78345215 146.72402344 36.1294043 147.45117188 36.48583984 C165.59535904 45.49854913 182.62529125 56.64772739 198.3125 69.4375 C198.93737305 69.94667969 199.56224609 70.45585937 200.20605469 70.98046875 C219.32375482 86.6947537 238.65797042 105.67617995 247.3125 129.4375 C247.68375 130.42621094 248.055 131.41492187 248.4375 132.43359375 C253.55098587 147.79180653 253.27569681 165.82183666 246.25 180.5 C242.8914 187.07469774 238.65587424 192.36721132 233.3125 197.4375 C232.64863281 198.08332031 231.98476563 198.72914063 231.30078125 199.39453125 C221.3617084 208.08412065 208.36404328 211.73413196 195.36328125 210.953125 C185.03458898 209.88775717 176.93127274 205.21531669 169.3125 198.4375 C168.68706299 197.90648682 168.06162598 197.37547363 167.41723633 196.82836914 C161.00642128 190.98168603 157.53345235 183.8743331 153.8125 176.1875 C147.87615979 164.06161075 141.49489234 152.56649651 132.5 142.375 C131.73925171 141.50258667 131.73925171 141.50258667 130.96313477 140.61254883 C122.81323506 131.36435492 114.09585221 122.95910949 104.3125 115.4375 C103.3121875 114.65890625 102.311875 113.8803125 101.28125 113.078125 C86.15871233 101.62597239 69.01657382 93.09972485 51.3125 86.4375 C49.46785156 85.72787109 49.46785156 85.72787109 47.5859375 85.00390625 C46.1625186 84.47888727 44.73794148 83.95700253 43.3125 83.4375 C42.48500244 83.12731934 41.65750488 82.81713867 40.80493164 82.49755859 C31.52409246 79.1885623 22.02748711 77.34802133 12.375 75.5 C11.48654388 75.32730591 10.59808777 75.15461182 9.68270874 74.97668457 C-5.57559239 72.02156725 -20.86793517 69.77458201 -36.2795105 67.80297852 C-37.00969391 67.70944092 -37.73987732 67.61590332 -38.4921875 67.51953125 C-39.56123825 67.38260864 -39.56123825 67.38260864 -40.65188599 67.24291992 C-83.82123579 61.63897931 -83.82123579 61.63897931 -91.875 53.125 C-95.37275486 47.93867382 -96.0550577 43.33951266 -95.7421875 37.2109375 C-95.59947875 34.39257913 -95.59947875 34.39257913 -96.1953125 31.4765625 C-96.57497822 27.68964033 -96.45249476 25.84592101 -94.6875 22.4375 C-88.61338477 17.61304267 -80.87895975 15.10478288 -73.6875 12.4375 C-72.80239746 12.09847656 -71.91729492 11.75945312 -71.00537109 11.41015625 C-47.87537119 2.71512703 -24.5210871 -0.01882944 0 0 Z " fill="#97FD97" transform="translate(4084.6875,1989.5625)"/>
<path d="M0 0 C0.79142395 0.00087616 1.5828479 0.00175232 2.39825439 0.00265503 C21.7825804 0.07339717 41.12433747 1.89453547 56.3125 15.375 C60.58191506 20.69859161 62.09190065 25.89292646 61.72265625 32.671875 C60.59218826 40.1221974 57.43085611 45.17895083 51.578125 49.8828125 C47.72786769 52.41867162 43.63404558 53.84664852 39.3125 55.375 C37.76797602 56.01762108 36.22373687 56.66092689 34.6796875 57.3046875 C29.32493202 59.45759465 23.90794483 60.92903976 18.3125 62.3125 C16.2640109 62.83210478 14.2158361 63.35295013 12.16796875 63.875 C11.16813965 64.12894531 10.16831055 64.38289063 9.13818359 64.64453125 C5.28302068 65.64113117 1.45416928 66.72108991 -2.375 67.8125 C-8.93557307 69.67466475 -15.53480234 71.33979926 -22.15844727 72.96289062 C-42.96958043 78.07031975 -60.80143631 84.95223367 -79.5546875 95.22314453 C-92.53880838 102.32838898 -105.45119984 109.11909553 -119.6875 113.375 C-120.76 113.766875 -121.8325 114.15875 -122.9375 114.5625 C-129.5813748 116.00200621 -137.50148499 116.98897106 -143.75 113.75 C-149.11848513 109.40952266 -151.08627931 104.97748021 -152.6875 98.375 C-153.55154294 88.60930539 -153.09795108 80.24856427 -148.6875 71.375 C-148.22472656 70.42367188 -147.76195312 69.47234375 -147.28515625 68.4921875 C-136.05211501 47.45426674 -115.45033868 33.8561535 -94.6875 23.375 C-93.95466797 23.00503906 -93.22183594 22.63507813 -92.46679688 22.25390625 C-73.31257351 12.70228821 -52.82972774 5.8463551 -31.6875 2.375 C-30.71369385 2.20581055 -29.7398877 2.03662109 -28.73657227 1.86230469 C-19.1218258 0.31886488 -9.71167823 -0.02633167 0 0 Z " fill="#97FD97" transform="translate(816.6875,1949.625)"/>
</svg>
